<svg width="104" height="104" viewBox="0 0 104 104" fill="none" xmlns="http://www.w3.org/2000/svg">
<path d="M66.9277 69.1699L67.5522 69.0276V90.6719H86.7523C77.736 98.7717 66.1738 103.468 54.0635 103.948C41.9532 104.429 30.0554 100.664 20.4257 93.3038C10.796 85.9439 4.03936 75.4513 1.32307 63.6389C-1.39321 51.8264 0.101505 39.4361 5.54898 28.6087V49.7154H13.6669V21.4387H13.7697L23.0971 49.7154H29.2942L38.9773 21.4387H39.08V49.7154C39.0721 50.0158 39.0642 50.3241 39.0642 50.6324C39.0269 53.3761 39.532 56.1002 40.5503 58.6482C41.4818 60.9582 42.8937 63.0438 44.6922 64.7668C46.5039 66.4789 48.6483 67.8001 50.9922 68.6482C53.546 69.5713 56.2446 70.0292 58.9599 70C61.6376 70.0027 64.3081 69.7245 66.9277 69.1699V69.1699Z" fill="white"/>
<path d="M91.661 75.668V68.1739H75.6701V61.2964H92.5937V53.7945H74.4212V47.1937H59.9954V54.6878H66.6115V60.6798C65.6278 61.185 64.5982 61.5953 63.5367 61.9051C62.0493 62.3313 60.5069 62.5338 58.9599 62.5059C57.3438 62.5267 55.7396 62.2257 54.2409 61.6206C52.878 61.0556 51.6478 60.213 50.6286 59.1463C49.604 58.0677 48.8129 56.7894 48.3046 55.3913C47.2296 52.3152 47.2296 48.9654 48.3046 45.8893C48.8107 44.4831 49.6019 43.1967 50.6286 42.1107C51.6482 41.0464 52.8785 40.2064 54.2409 39.6443C55.738 39.0327 57.3429 38.7289 58.9599 38.751C60.736 38.6974 62.5047 39.0012 64.1611 39.6443C65.576 40.2478 66.8534 41.1326 67.9158 42.2451L73.6387 35.9921C71.7838 34.2691 69.5459 33.0119 67.1095 32.3241C64.4561 31.5899 61.7129 31.2307 58.9599 31.2569C56.2446 31.2277 53.546 31.6856 50.9922 32.6087C49.6621 33.0952 48.3918 33.7317 47.2059 34.5059V12.8459H34.9697L26.4249 36.9012H26.3221L17.5718 13.0356C27.2179 4.51286 39.682 -0.12908 52.5527 0.00776335C65.4235 0.144607 77.786 5.05051 87.2488 13.7764C96.7117 22.5023 102.602 34.4279 103.781 47.2463C104.959 60.0646 101.342 72.8646 93.6292 83.17H75.6701V75.668H91.661Z" fill="white"/>
</svg>
