<svg xmlns="http://www.w3.org/2000/svg" width="854.323" height="281.691" viewBox="0 0 854.323 281.691">
  <g id="Group_118" data-name="Group 118" transform="translate(-4636.6 -1548.711)">
    <g id="Group_116" data-name="Group 116">
      <g id="Group_114" data-name="Group 114">
        <path id="Path_883" data-name="Path 883" d="M4723.776,1830.4l-37.292-65.866H4670.5V1830.4h-33.9V1661.378h63.445q19.614,0,33.418,6.9t20.7,18.646a50.9,50.9,0,0,1,6.9,26.274,50.345,50.345,0,0,1-9.686,30.149q-9.687,13.438-28.817,18.524l40.441,68.53ZM4670.5,1739.11h28.332q13.8,0,20.584-6.66t6.78-18.524q0-11.624-6.78-18.041t-20.584-6.417H4670.5Z" fill="#fff"/>
        <path id="Path_884" data-name="Path 884" d="M4837.829,1688.741v42.377h56.907V1758h-56.907v44.8H4902v27.6h-98.073V1661.136H4902v27.6Z" fill="#fff"/>
        <path id="Path_885" data-name="Path 885" d="M5096.693,1661.378,5034.7,1830.4h-41.167l-61.991-169.024h36.323l46.493,134.4,46.252-134.4Z" fill="#fff"/>
        <path id="Path_886" data-name="Path 886" d="M5163.044,1661.378V1830.4h-33.9V1661.378Z" fill="#fff"/>
        <path id="Path_887" data-name="Path 887" d="M5360.4,1661.378,5298.409,1830.4h-41.167l-61.991-169.024h36.323l46.493,134.4,46.252-134.4Z" fill="#fff"/>
        <path id="Path_888" data-name="Path 888" d="M5426.751,1688.741v42.377h56.907V1758h-56.907v44.8h64.172v27.6h-98.074V1661.136h98.074v27.6Z" fill="#fff"/>
        <path id="Path_889" data-name="Path 889" d="M5159.044,1623.2h-25.9l-4,14.676h33.9Z" fill="#fff"/>
      </g>
      <g id="Group_115" data-name="Group 115">
        <path id="Path_890" data-name="Path 890" d="M5191.83,1548.711h-20l-5,6h-42.167l-5-6h-20l-30.928,89.16h36.543l11.319-30.093h58.969l10.854,30.093h36.541Zm-18.556,17.844a4.58,4.58,0,1,1-4.58,4.58A4.58,4.58,0,0,1,5173.274,1566.555Zm-41.149,17.479h-9.966V1594h-7.5v-9.964h-9.965v-7.5h9.965v-9.966h7.5v9.966h9.966Zm32,.829a4.58,4.58,0,1,1,4.58-4.58A4.58,4.58,0,0,1,5164.126,1584.863Zm9.148,9.148a4.58,4.58,0,1,1,4.58-4.58A4.579,4.579,0,0,1,5173.274,1594.011Zm9.148-9.148a4.58,4.58,0,1,1,4.58-4.58A4.58,4.58,0,0,1,5182.422,1584.863Z" fill="#bdf216"/>
      </g>
    </g>
    <g id="Group_117" data-name="Group 117">
      <path id="Path_891" data-name="Path 891" d="M4650.538,1637.478l-4.99-8.815h-2.14v8.815h-4.537v-22.621h8.491a9.892,9.892,0,0,1,4.472.924,6.447,6.447,0,0,1,2.772,2.495,6.817,6.817,0,0,1,.923,3.516,6.735,6.735,0,0,1-1.3,4.035,6.66,6.66,0,0,1-3.857,2.48l5.413,9.171Zm-7.13-12.218h3.792a3.789,3.789,0,0,0,2.755-.891,3.317,3.317,0,0,0,.907-2.48,3.165,3.165,0,0,0-.907-2.414,3.878,3.878,0,0,0-2.755-.859h-3.792Z" fill="#fff"/>
      <path id="Path_892" data-name="Path 892" d="M4676.206,1629.862h-13.125a4.462,4.462,0,0,0,1.361,3.046,4.2,4.2,0,0,0,2.949,1.1,3.7,3.7,0,0,0,3.6-2.171h4.894a8.179,8.179,0,0,1-2.981,4.262,8.706,8.706,0,0,1-5.413,1.669,9.35,9.35,0,0,1-4.65-1.151,8.083,8.083,0,0,1-3.209-3.257,9.976,9.976,0,0,1-1.151-4.861,10.161,10.161,0,0,1,1.135-4.894,7.926,7.926,0,0,1,3.176-3.241,10.2,10.2,0,0,1,9.285-.033,7.767,7.767,0,0,1,3.143,3.129,9.454,9.454,0,0,1,1.119,4.65A10.649,10.649,0,0,1,4676.206,1629.862Zm-4.57-3.046a3.6,3.6,0,0,0-1.263-2.8,4.489,4.489,0,0,0-3.014-1.053,4.114,4.114,0,0,0-2.836,1.021,4.485,4.485,0,0,0-1.41,2.836Z" fill="#fff"/>
      <path id="Path_893" data-name="Path 893" d="M4687.127,1633.3l4.537-13.774h4.83l-6.645,17.954h-5.509l-6.612-17.954h4.862Z" fill="#fff"/>
      <path id="Path_894" data-name="Path 894" d="M4699.361,1616.623a2.663,2.663,0,0,1,0-3.792,2.993,2.993,0,0,1,3.988,0,2.663,2.663,0,0,1,0,3.792,2.99,2.99,0,0,1-3.988,0Zm4.23,2.9v17.954h-4.537v-17.954Z" fill="#fff"/>
      <path id="Path_895" data-name="Path 895" d="M4715.55,1633.3l4.538-13.774h4.829l-6.644,17.954h-5.51l-6.611-17.954h4.861Z" fill="#fff"/>
      <path id="Path_896" data-name="Path 896" d="M4744.037,1629.862h-13.125a4.462,4.462,0,0,0,1.361,3.046,4.2,4.2,0,0,0,2.95,1.1,3.7,3.7,0,0,0,3.6-2.171h4.894a8.174,8.174,0,0,1-2.981,4.262,8.7,8.7,0,0,1-5.412,1.669,9.353,9.353,0,0,1-4.651-1.151,8.089,8.089,0,0,1-3.209-3.257,9.975,9.975,0,0,1-1.15-4.861,10.172,10.172,0,0,1,1.134-4.894,7.923,7.923,0,0,1,3.176-3.241,10.2,10.2,0,0,1,9.285-.033,7.773,7.773,0,0,1,3.144,3.129,9.464,9.464,0,0,1,1.118,4.65A10.649,10.649,0,0,1,4744.037,1629.862Zm-4.57-3.046a3.6,3.6,0,0,0-1.263-2.8,4.487,4.487,0,0,0-3.014-1.053,4.116,4.116,0,0,0-2.836,1.021,4.485,4.485,0,0,0-1.41,2.836Z" fill="#fff"/>
      <path id="Path_897" data-name="Path 897" d="M4747.456,1636.944a2.663,2.663,0,0,1,0-3.792,2.808,2.808,0,0,1,2.026-.762,2.708,2.708,0,0,1,1.977.762,2.7,2.7,0,0,1,0,3.792,2.711,2.711,0,0,1-1.977.761A2.811,2.811,0,0,1,4747.456,1636.944Z" fill="#bdf216"/>
      <path id="Path_898" data-name="Path 898" d="M4775.279,1637.478l-4.991-8.815h-2.139v8.815h-4.538v-22.621h8.492a9.9,9.9,0,0,1,4.472.924,6.441,6.441,0,0,1,2.771,2.495,6.813,6.813,0,0,1,.924,3.516,6.732,6.732,0,0,1-1.3,4.035,6.655,6.655,0,0,1-3.856,2.48l5.412,9.171Zm-7.13-12.218h3.792a3.791,3.791,0,0,0,2.755-.891,3.317,3.317,0,0,0,.907-2.48,3.166,3.166,0,0,0-.907-2.414,3.879,3.879,0,0,0-2.755-.859h-3.792Z" fill="#fff"/>
      <path id="Path_899" data-name="Path 899" d="M4800.947,1629.862h-13.125a4.454,4.454,0,0,0,1.361,3.046,4.193,4.193,0,0,0,2.949,1.1,3.7,3.7,0,0,0,3.6-2.171h4.894a8.184,8.184,0,0,1-2.982,4.262,8.7,8.7,0,0,1-5.412,1.669,9.356,9.356,0,0,1-4.651-1.151,8.1,8.1,0,0,1-3.209-3.257,9.986,9.986,0,0,1-1.15-4.861,10.161,10.161,0,0,1,1.135-4.894,7.925,7.925,0,0,1,3.175-3.241,10.2,10.2,0,0,1,9.285-.033,7.765,7.765,0,0,1,3.144,3.129,9.464,9.464,0,0,1,1.119,4.65A10.7,10.7,0,0,1,4800.947,1629.862Zm-4.57-3.046a3.6,3.6,0,0,0-1.264-2.8,4.483,4.483,0,0,0-3.014-1.053,4.117,4.117,0,0,0-2.836,1.021,4.492,4.492,0,0,0-1.41,2.836Z" fill="#fff"/>
      <path id="Path_900" data-name="Path 900" d="M4811.334,1620.058a7.316,7.316,0,0,1,3.517-.826,7.855,7.855,0,0,1,4.164,1.134,7.987,7.987,0,0,1,2.949,3.225,10.363,10.363,0,0,1,1.086,4.846,10.554,10.554,0,0,1-1.086,4.876,8.166,8.166,0,0,1-2.949,3.29,7.687,7.687,0,0,1-4.164,1.167,7.252,7.252,0,0,1-3.484-.81,7.475,7.475,0,0,1-2.448-2.042v11.116h-4.537v-26.51h4.537v2.592A6.9,6.9,0,0,1,4811.334,1620.058Zm6.417,5.575a4.612,4.612,0,0,0-1.75-1.8,4.688,4.688,0,0,0-2.349-.616,4.536,4.536,0,0,0-2.318.632,4.681,4.681,0,0,0-1.75,1.831,6.311,6.311,0,0,0,0,5.64,4.688,4.688,0,0,0,1.75,1.831,4.578,4.578,0,0,0,4.667-.017,4.8,4.8,0,0,0,1.75-1.847,5.8,5.8,0,0,0,.665-2.851A5.636,5.636,0,0,0,4817.751,1625.633Z" fill="#fff"/>
      <path id="Path_901" data-name="Path 901" d="M4826.274,1623.607a7.969,7.969,0,0,1,2.949-3.241,7.85,7.85,0,0,1,4.164-1.134,7.33,7.33,0,0,1,3.517.81,7.126,7.126,0,0,1,2.414,2.042v-2.56h4.57v17.954h-4.57v-2.625a6.753,6.753,0,0,1-2.414,2.091,7.39,7.39,0,0,1-3.549.826,7.627,7.627,0,0,1-4.132-1.167,8.167,8.167,0,0,1-2.949-3.29,10.542,10.542,0,0,1-1.086-4.876A10.378,10.378,0,0,1,4826.274,1623.607Zm12.4,2.058a4.57,4.57,0,0,0-1.75-1.815,4.677,4.677,0,0,0-2.365-.632,4.558,4.558,0,0,0-4.068,2.415,5.626,5.626,0,0,0-.665,2.8,5.81,5.81,0,0,0,.665,2.835,4.773,4.773,0,0,0,1.75,1.863,4.434,4.434,0,0,0,2.318.648,4.676,4.676,0,0,0,2.365-.631,4.577,4.577,0,0,0,1.75-1.815,6.53,6.53,0,0,0,0-5.672Z" fill="#fff"/>
      <path id="Path_902" data-name="Path 902" d="M4848.636,1616.623a2.66,2.66,0,0,1,0-3.792,2.991,2.991,0,0,1,3.987,0,2.663,2.663,0,0,1,0,3.792,2.989,2.989,0,0,1-3.987,0Zm4.229,2.9v17.954h-4.537v-17.954Z" fill="#fff"/>
      <path id="Path_903" data-name="Path 903" d="M4864.16,1620.075a6.36,6.36,0,0,1,3.225-.811v4.764h-1.2a3.785,3.785,0,0,0-4.311,4.506v8.944h-4.537v-17.954h4.537v2.787A6.387,6.387,0,0,1,4864.16,1620.075Z" fill="#fff"/>
      <path id="Path_904" data-name="Path 904" d="M4870.414,1636.944a2.661,2.661,0,0,1,0-3.792,2.808,2.808,0,0,1,2.026-.762,2.706,2.706,0,0,1,1.976.762,2.7,2.7,0,0,1,0,3.792,2.709,2.709,0,0,1-1.976.761A2.811,2.811,0,0,1,4870.414,1636.944Z" fill="#bdf216"/>
      <path id="Path_905" data-name="Path 905" d="M4898.237,1637.478l-4.99-8.815h-2.14v8.815h-4.537v-22.621h8.492a9.9,9.9,0,0,1,4.472.924,6.441,6.441,0,0,1,2.771,2.495,6.813,6.813,0,0,1,.923,3.516,6.731,6.731,0,0,1-1.3,4.035,6.659,6.659,0,0,1-3.856,2.48l5.412,9.171Zm-7.13-12.218h3.792a3.787,3.787,0,0,0,2.755-.891,3.317,3.317,0,0,0,.907-2.48,3.166,3.166,0,0,0-.907-2.414,3.876,3.876,0,0,0-2.755-.859h-3.792Z" fill="#fff"/>
      <path id="Path_906" data-name="Path 906" d="M4923.9,1629.862H4910.78a4.457,4.457,0,0,0,1.36,3.046,4.2,4.2,0,0,0,2.95,1.1,3.7,3.7,0,0,0,3.6-2.171h4.894a8.176,8.176,0,0,1-2.981,4.262,8.7,8.7,0,0,1-5.412,1.669,9.356,9.356,0,0,1-4.651-1.151,8.1,8.1,0,0,1-3.209-3.257,9.986,9.986,0,0,1-1.15-4.861,10.161,10.161,0,0,1,1.135-4.894,7.919,7.919,0,0,1,3.175-3.241,10.2,10.2,0,0,1,9.285-.033,7.77,7.77,0,0,1,3.144,3.129,9.464,9.464,0,0,1,1.118,4.65A10.706,10.706,0,0,1,4923.9,1629.862Zm-4.57-3.046a3.6,3.6,0,0,0-1.264-2.8,4.483,4.483,0,0,0-3.014-1.053,4.117,4.117,0,0,0-2.836,1.021,4.488,4.488,0,0,0-1.41,2.836Z" fill="#fff"/>
      <path id="Path_907" data-name="Path 907" d="M4934.292,1620.058a7.316,7.316,0,0,1,3.517-.826,7.857,7.857,0,0,1,4.164,1.134,7.987,7.987,0,0,1,2.949,3.225,10.375,10.375,0,0,1,1.086,4.846,10.567,10.567,0,0,1-1.086,4.876,8.166,8.166,0,0,1-2.949,3.29,7.69,7.69,0,0,1-4.164,1.167,7.256,7.256,0,0,1-3.485-.81,7.471,7.471,0,0,1-2.447-2.042v11.116h-4.537v-26.51h4.537v2.592A6.9,6.9,0,0,1,4934.292,1620.058Zm6.417,5.575a4.612,4.612,0,0,0-1.75-1.8,4.689,4.689,0,0,0-2.35-.616,4.535,4.535,0,0,0-2.317.632,4.69,4.69,0,0,0-1.751,1.831,6.32,6.32,0,0,0,0,5.64,4.7,4.7,0,0,0,1.751,1.831,4.578,4.578,0,0,0,4.667-.017,4.8,4.8,0,0,0,1.75-1.847,5.805,5.805,0,0,0,.665-2.851A5.647,5.647,0,0,0,4940.709,1625.633Z" fill="#fff"/>
      <path id="Path_908" data-name="Path 908" d="M4953.85,1613.5v23.982h-4.537V1613.5Z" fill="#fff"/>
      <path id="Path_909" data-name="Path 909" d="M4958.241,1623.607a7.97,7.97,0,0,1,2.95-3.241,7.849,7.849,0,0,1,4.164-1.134,7.332,7.332,0,0,1,3.517.81,7.131,7.131,0,0,1,2.414,2.042v-2.56h4.57v17.954h-4.57v-2.625a6.757,6.757,0,0,1-2.414,2.091,7.39,7.39,0,0,1-3.549.826,7.628,7.628,0,0,1-4.132-1.167,8.168,8.168,0,0,1-2.95-3.29,10.554,10.554,0,0,1-1.085-4.876A10.39,10.39,0,0,1,4958.241,1623.607Zm12.4,2.058a4.562,4.562,0,0,0-1.749-1.815,4.682,4.682,0,0,0-2.366-.632,4.554,4.554,0,0,0-4.067,2.415,5.626,5.626,0,0,0-.665,2.8,5.81,5.81,0,0,0,.665,2.835,4.766,4.766,0,0,0,1.75,1.863,4.433,4.433,0,0,0,2.317.648,4.681,4.681,0,0,0,2.366-.631,4.568,4.568,0,0,0,1.749-1.815,6.522,6.522,0,0,0,0-5.672Z" fill="#fff"/>
      <path id="Path_910" data-name="Path 910" d="M4997.473,1619.524l-11.117,26.446h-4.828l3.889-8.946-7.195-17.5h5.088l4.635,12.542,4.7-12.542Z" fill="#fff"/>
      <path id="Path_911" data-name="Path 911" d="M4999.887,1636.944a2.663,2.663,0,0,1,0-3.792,2.807,2.807,0,0,1,2.026-.762,2.71,2.71,0,0,1,1.977.762,2.7,2.7,0,0,1,0,3.792,2.713,2.713,0,0,1-1.977.761A2.81,2.81,0,0,1,4999.887,1636.944Z" fill="#bdf216"/>
    </g>
  </g>
</svg>
