<svg xmlns="http://www.w3.org/2000/svg" viewBox="0 0 854.32 281.69"><defs><style>.cls-1{fill:#272825;}.cls-2{fill:#bdf216;}</style></defs><g id="Laag_2" data-name="Laag 2"><g id="Laag_1-2" data-name="Laag 1"><path class="cls-1" d="M87.18,281.69l-37.3-65.86h-16v65.86H0v-169H63.44q19.62,0,33.42,6.9t20.71,18.64a50.94,50.94,0,0,1,6.9,26.28,50.32,50.32,0,0,1-9.69,30.15Q105.09,208.08,86,213.16l40.45,68.53ZM33.9,190.4H62.23q13.82,0,20.59-6.66t6.78-18.53q0-11.61-6.78-18t-20.59-6.41H33.9Z"/><path class="cls-1" d="M201.23,140v42.38h56.91v26.88H201.23v44.8H265.4v27.6H167.33V112.42H265.4V140Z"/><path class="cls-1" d="M460.09,112.67l-62,169H356.93l-62-169h36.33l46.49,134.39L424,112.67Z"/><path class="cls-1" d="M526.44,112.67v169h-33.9v-169Z"/><path class="cls-1" d="M723.8,112.67l-62,169H620.64l-62-169H595l46.5,134.39,46.25-134.39Z"/><path class="cls-1" d="M790.15,140v42.38h56.91v26.88H790.15v44.8h64.17v27.6H756.25V112.42h98.07V140Z"/><polygon class="cls-1" points="522.44 74.48 496.54 74.48 492.54 89.16 526.44 89.16 522.44 74.48"/><path class="cls-2" d="M555.23,0h-20l-5,6H488.06l-5-6h-20L432.13,89.16h36.55L480,59.07h59l10.85,30.09h36.54ZM536.67,17.84a4.58,4.58,0,1,1-4.58,4.58A4.58,4.58,0,0,1,536.67,17.84ZM495.52,35.32h-10v10h-7.5v-10h-10v-7.5h10v-10h7.5v10h10Zm32,.83a4.58,4.58,0,1,1,4.58-4.58A4.58,4.58,0,0,1,527.53,36.15Zm9.14,9.15a4.58,4.58,0,1,1,4.58-4.58A4.58,4.58,0,0,1,536.67,45.3Zm9.15-9.15a4.58,4.58,0,1,1,4.58-4.58A4.58,4.58,0,0,1,545.82,36.15Z"/><path class="cls-1" d="M13.94,88.77,9,80H6.81v8.82H2.27V66.15h8.49a9.84,9.84,0,0,1,4.47.92A6.48,6.48,0,0,1,18,69.57a6.81,6.81,0,0,1,.92,3.51,6.55,6.55,0,0,1-5.15,6.52l5.41,9.17ZM6.81,76.55H10.6a3.79,3.79,0,0,0,2.75-.89,3.31,3.31,0,0,0,.91-2.48,3.17,3.17,0,0,0-.91-2.42,3.87,3.87,0,0,0-2.75-.86H6.81Z"/><path class="cls-1" d="M39.61,81.15H26.48a4.48,4.48,0,0,0,1.36,3,4.21,4.21,0,0,0,2.95,1.1,3.7,3.7,0,0,0,3.6-2.17h4.89a8.16,8.16,0,0,1-3,4.26,8.71,8.71,0,0,1-5.41,1.67,9.32,9.32,0,0,1-4.65-1.15A8.12,8.12,0,0,1,23,84.65a9.92,9.92,0,0,1-1.15-4.86A10.2,10.2,0,0,1,23,74.9a8,8,0,0,1,3.18-3.25,9.58,9.58,0,0,1,4.7-1.13,9.48,9.48,0,0,1,4.58,1.1,7.84,7.84,0,0,1,3.15,3.13,9.52,9.52,0,0,1,1.12,4.65A11.47,11.47,0,0,1,39.61,81.15ZM35,78.1a3.63,3.63,0,0,0-1.27-2.8,4.47,4.47,0,0,0-3-1,4.13,4.13,0,0,0-2.84,1,4.52,4.52,0,0,0-1.41,2.83Z"/><path class="cls-1" d="M50.53,84.59l4.53-13.78h4.83l-6.64,18H47.74l-6.61-18H46Z"/><path class="cls-1" d="M62.76,67.91a2.67,2.67,0,0,1,0-3.79,3,3,0,0,1,4,0,2.67,2.67,0,0,1,0,3.79,3,3,0,0,1-4,0ZM67,70.81v18H62.45v-18Z"/><path class="cls-1" d="M79,84.59l4.54-13.78h4.83l-6.65,18H76.16l-6.61-18h4.86Z"/><path class="cls-1" d="M107.44,81.15H94.31a4.48,4.48,0,0,0,1.36,3,4.23,4.23,0,0,0,3,1.1,3.7,3.7,0,0,0,3.6-2.17h4.89a8.16,8.16,0,0,1-3,4.26,8.71,8.71,0,0,1-5.41,1.67,9.32,9.32,0,0,1-4.65-1.15,8.12,8.12,0,0,1-3.21-3.26,9.92,9.92,0,0,1-1.15-4.86,10.2,10.2,0,0,1,1.13-4.89A8,8,0,0,1,94,71.65a9.58,9.58,0,0,1,4.7-1.13,9.46,9.46,0,0,1,4.58,1.1,7.84,7.84,0,0,1,3.15,3.13,9.52,9.52,0,0,1,1.12,4.65A11.47,11.47,0,0,1,107.44,81.15Zm-4.57-3.05a3.6,3.6,0,0,0-1.27-2.8,4.47,4.47,0,0,0-3-1,4.14,4.14,0,0,0-2.84,1,4.57,4.57,0,0,0-1.41,2.83Z"/><path class="cls-2" d="M110.86,88.23a2.64,2.64,0,0,1,0-3.79,2.79,2.79,0,0,1,2-.76,2.71,2.71,0,0,1,2,.76,2.69,2.69,0,0,1,0,3.79,2.71,2.71,0,0,1-2,.76A2.79,2.79,0,0,1,110.86,88.23Z"/><path class="cls-1" d="M138.68,88.77l-5-8.82h-2.14v8.82H127V66.15h8.49a9.84,9.84,0,0,1,4.47.92,6.48,6.48,0,0,1,2.78,2.5,6.81,6.81,0,0,1,.92,3.51,6.55,6.55,0,0,1-5.15,6.52l5.41,9.17Zm-7.13-12.22h3.79a3.83,3.83,0,0,0,2.76-.89,3.34,3.34,0,0,0,.9-2.48,3.2,3.2,0,0,0-.9-2.42,3.92,3.92,0,0,0-2.76-.86h-3.79Z"/><path class="cls-1" d="M164.35,81.15H151.22a4.48,4.48,0,0,0,1.36,3,4.23,4.23,0,0,0,2.95,1.1,3.7,3.7,0,0,0,3.6-2.17H164a8.16,8.16,0,0,1-3,4.26,8.71,8.71,0,0,1-5.41,1.67A9.32,9.32,0,0,1,151,87.91a8.12,8.12,0,0,1-3.21-3.26,9.92,9.92,0,0,1-1.15-4.86,10.2,10.2,0,0,1,1.13-4.89,8,8,0,0,1,3.18-3.25,9.58,9.58,0,0,1,4.7-1.13,9.48,9.48,0,0,1,4.58,1.1,7.84,7.84,0,0,1,3.15,3.13,9.52,9.52,0,0,1,1.12,4.65A11.47,11.47,0,0,1,164.35,81.15Zm-4.57-3.05a3.6,3.6,0,0,0-1.27-2.8,4.47,4.47,0,0,0-3-1,4.14,4.14,0,0,0-2.84,1,4.57,4.57,0,0,0-1.41,2.83Z"/><path class="cls-1" d="M174.73,71.35a7.35,7.35,0,0,1,3.52-.83,7.78,7.78,0,0,1,7.11,4.36,10.29,10.29,0,0,1,1.09,4.85,10.46,10.46,0,0,1-1.09,4.87,8.07,8.07,0,0,1-3,3.29,7.66,7.66,0,0,1-4.16,1.17,7.21,7.21,0,0,1-3.48-.81,7.47,7.47,0,0,1-2.45-2V97.32h-4.54V70.81h4.54v2.6A6.8,6.8,0,0,1,174.73,71.35Zm6.42,5.57a4.6,4.6,0,0,0-1.75-1.8,4.68,4.68,0,0,0-2.35-.61,4.57,4.57,0,0,0-2.32.63A4.75,4.75,0,0,0,173,77a6.35,6.35,0,0,0,0,5.64,4.75,4.75,0,0,0,1.75,1.83,4.57,4.57,0,0,0,2.32.63,4.43,4.43,0,0,0,2.35-.65,4.78,4.78,0,0,0,1.75-1.84,5.83,5.83,0,0,0,.67-2.85A5.67,5.67,0,0,0,181.15,76.92Z"/><path class="cls-1" d="M189.67,74.9a8,8,0,0,1,3-3.25,7.9,7.9,0,0,1,4.17-1.13,7.28,7.28,0,0,1,3.51.81,7.16,7.16,0,0,1,2.42,2V70.81h4.57v18h-4.57V86.14a6.81,6.81,0,0,1-2.42,2.09,7.37,7.37,0,0,1-3.54.83,7.62,7.62,0,0,1-4.14-1.17,8.21,8.21,0,0,1-3-3.29,10.58,10.58,0,0,1-1.08-4.87A10.41,10.41,0,0,1,189.67,74.9Zm12.4,2a4.62,4.62,0,0,0-1.75-1.81,4.67,4.67,0,0,0-2.37-.63,4.52,4.52,0,0,0-4.06,2.41,5.57,5.57,0,0,0-.67,2.81,5.72,5.72,0,0,0,.67,2.83,4.7,4.7,0,0,0,1.75,1.86,4.34,4.34,0,0,0,2.31.65,4.67,4.67,0,0,0,2.37-.63,4.62,4.62,0,0,0,1.75-1.81,6.53,6.53,0,0,0,0-5.68Z"/><path class="cls-1" d="M212,67.91a2.64,2.64,0,0,1,0-3.79,3,3,0,0,1,4,0,2.64,2.64,0,0,1,0,3.79,3,3,0,0,1-4,0Zm4.22,2.9v18h-4.53v-18Z"/><path class="cls-1" d="M227.56,71.36a6.34,6.34,0,0,1,3.22-.81v4.77h-1.19a4.6,4.6,0,0,0-3.23,1,4.65,4.65,0,0,0-1.09,3.5v9h-4.53v-18h4.53V73.6A6.46,6.46,0,0,1,227.56,71.36Z"/><path class="cls-2" d="M233.81,88.23a2.67,2.67,0,0,1,0-3.79,2.81,2.81,0,0,1,2-.76,2.71,2.71,0,0,1,2,.76,2.72,2.72,0,0,1,0,3.79,2.71,2.71,0,0,1-2,.76A2.81,2.81,0,0,1,233.81,88.23Z"/><path class="cls-1" d="M261.64,88.77l-5-8.82h-2.14v8.82H250V66.15h8.49a9.84,9.84,0,0,1,4.47.92,6.39,6.39,0,0,1,2.77,2.5,6.69,6.69,0,0,1-4.22,10l5.41,9.17Zm-7.13-12.22h3.79a3.79,3.79,0,0,0,2.75-.89,3.31,3.31,0,0,0,.91-2.48,3.17,3.17,0,0,0-.91-2.42,3.87,3.87,0,0,0-2.75-.86h-3.79Z"/><path class="cls-1" d="M287.3,81.15H274.18a4.48,4.48,0,0,0,1.36,3,4.21,4.21,0,0,0,2.95,1.1,3.72,3.72,0,0,0,3.6-2.17H287a8.16,8.16,0,0,1-3,4.26,8.71,8.71,0,0,1-5.41,1.67,9.32,9.32,0,0,1-4.65-1.15,8,8,0,0,1-3.21-3.26,9.92,9.92,0,0,1-1.15-4.86,10.09,10.09,0,0,1,1.13-4.89,8,8,0,0,1,3.18-3.25,10.21,10.21,0,0,1,9.28,0,7.84,7.84,0,0,1,3.15,3.13,9.52,9.52,0,0,1,1.11,4.65A10.32,10.32,0,0,1,287.3,81.15Zm-4.57-3.05a3.59,3.59,0,0,0-1.26-2.8,4.49,4.49,0,0,0-3-1,4.13,4.13,0,0,0-2.84,1,4.47,4.47,0,0,0-1.41,2.83Z"/><path class="cls-1" d="M297.69,71.35a7.35,7.35,0,0,1,3.52-.83,7.89,7.89,0,0,1,4.16,1.13,8,8,0,0,1,2.95,3.23,10.41,10.41,0,0,1,1.09,4.85,10.59,10.59,0,0,1-1.09,4.87,8.14,8.14,0,0,1-2.95,3.29,7.66,7.66,0,0,1-4.16,1.17,7.28,7.28,0,0,1-3.49-.81,7.43,7.43,0,0,1-2.44-2V97.32h-4.54V70.81h4.54v2.6A6.8,6.8,0,0,1,297.69,71.35Zm6.42,5.57a4.6,4.6,0,0,0-1.75-1.8,4.71,4.71,0,0,0-2.35-.61,4.57,4.57,0,0,0-2.32.63A4.68,4.68,0,0,0,295.94,77a6.35,6.35,0,0,0,0,5.64,4.68,4.68,0,0,0,1.75,1.83,4.57,4.57,0,0,0,2.32.63,4.46,4.46,0,0,0,2.35-.65,4.78,4.78,0,0,0,1.75-1.84,5.83,5.83,0,0,0,.66-2.85A5.67,5.67,0,0,0,304.11,76.92Z"/><path class="cls-1" d="M317.25,64.78v24h-4.54v-24Z"/><path class="cls-1" d="M321.64,74.9a8,8,0,0,1,2.95-3.25,7.89,7.89,0,0,1,4.16-1.13,7.32,7.32,0,0,1,3.52.81,7.16,7.16,0,0,1,2.42,2V70.81h4.57v18h-4.57V86.14a6.81,6.81,0,0,1-2.42,2.09,7.41,7.41,0,0,1-3.55.83,7.61,7.61,0,0,1-4.13-1.17,8.21,8.21,0,0,1-2.95-3.29,10.58,10.58,0,0,1-1.08-4.87A10.41,10.41,0,0,1,321.64,74.9ZM334,77a4.62,4.62,0,0,0-1.75-1.81,4.73,4.73,0,0,0-2.37-.63,4.58,4.58,0,0,0-2.33.61,4.71,4.71,0,0,0-1.74,1.8,5.67,5.67,0,0,0-.66,2.81,5.83,5.83,0,0,0,.66,2.83,4.84,4.84,0,0,0,1.75,1.86,4.4,4.4,0,0,0,2.32.65,4.73,4.73,0,0,0,2.37-.63A4.62,4.62,0,0,0,334,82.63,6.53,6.53,0,0,0,334,77Z"/><path class="cls-1" d="M360.87,70.81,349.76,97.26h-4.83l3.89-9-7.2-17.5h5.09l4.63,12.54L356,70.81Z"/><path class="cls-2" d="M363.29,88.23a2.64,2.64,0,0,1,0-3.79,2.79,2.79,0,0,1,2-.76,2.71,2.71,0,0,1,2,.76,2.69,2.69,0,0,1,0,3.79,2.71,2.71,0,0,1-2,.76A2.79,2.79,0,0,1,363.29,88.23Z"/></g></g></svg>